<mxfile host="Electron" modified="2024-04-28T17:03:19.171Z" agent="Mozilla/5.0 (X11; Linux x86_64) AppleWebKit/537.36 (KHTML, like Gecko) draw.io/24.2.5 Chrome/120.0.6099.109 Electron/28.1.0 Safari/537.36" etag="Mv9fIab9T8745wWr42bL" version="24.2.5" type="device">
  <diagram name="Page-1" id="Ugl4BReCPSDr0RVZGSZ6">
    <mxGraphModel dx="683" dy="393" grid="1" gridSize="10" guides="1" tooltips="1" connect="1" arrows="1" fold="1" page="1" pageScale="1" pageWidth="1169" pageHeight="827" math="0" shadow="0">
      <root>
        <mxCell id="0" />
        <mxCell id="1" parent="0" />
        <mxCell id="ACdFcl3Bcu2u3GEiezcl-9" style="rounded=0;orthogonalLoop=1;jettySize=auto;html=1;startArrow=block;startFill=1;entryX=0.077;entryY=0.455;entryDx=0;entryDy=0;entryPerimeter=0;" edge="1" parent="1" source="ACdFcl3Bcu2u3GEiezcl-1" target="ACdFcl3Bcu2u3GEiezcl-3">
          <mxGeometry relative="1" as="geometry">
            <mxPoint x="270" y="255" as="targetPoint" />
          </mxGeometry>
        </mxCell>
        <mxCell id="ACdFcl3Bcu2u3GEiezcl-1" value="User Interface" style="sketch=0;pointerEvents=1;shadow=0;dashed=0;html=1;strokeColor=none;fillColor=#434445;aspect=fixed;labelPosition=center;verticalLabelPosition=bottom;verticalAlign=top;align=center;outlineConnect=0;shape=mxgraph.vvd.web_browser;" vertex="1" parent="1">
          <mxGeometry x="210" y="275" width="50" height="35.5" as="geometry" />
        </mxCell>
        <mxCell id="ACdFcl3Bcu2u3GEiezcl-7" style="edgeStyle=orthogonalEdgeStyle;rounded=0;orthogonalLoop=1;jettySize=auto;html=1;startArrow=classic;startFill=1;" edge="1" parent="1" source="ACdFcl3Bcu2u3GEiezcl-2" target="ACdFcl3Bcu2u3GEiezcl-1">
          <mxGeometry relative="1" as="geometry" />
        </mxCell>
        <mxCell id="ACdFcl3Bcu2u3GEiezcl-2" value="End-user" style="shape=umlActor;verticalLabelPosition=bottom;verticalAlign=top;html=1;outlineConnect=0;" vertex="1" parent="1">
          <mxGeometry x="140" y="262.75" width="30" height="60" as="geometry" />
        </mxCell>
        <mxCell id="ACdFcl3Bcu2u3GEiezcl-10" style="rounded=0;orthogonalLoop=1;jettySize=auto;html=1;startArrow=block;startFill=1;exitX=1.129;exitY=0.36;exitDx=0;exitDy=0;exitPerimeter=0;" edge="1" parent="1" source="ACdFcl3Bcu2u3GEiezcl-14" target="ACdFcl3Bcu2u3GEiezcl-4">
          <mxGeometry relative="1" as="geometry" />
        </mxCell>
        <mxCell id="ACdFcl3Bcu2u3GEiezcl-11" style="rounded=0;orthogonalLoop=1;jettySize=auto;html=1;startArrow=block;startFill=1;exitX=0.919;exitY=0.112;exitDx=0;exitDy=0;exitPerimeter=0;" edge="1" parent="1" source="ACdFcl3Bcu2u3GEiezcl-14" target="ACdFcl3Bcu2u3GEiezcl-5">
          <mxGeometry relative="1" as="geometry">
            <mxPoint x="510" y="188" as="sourcePoint" />
          </mxGeometry>
        </mxCell>
        <mxCell id="ACdFcl3Bcu2u3GEiezcl-13" style="rounded=0;orthogonalLoop=1;jettySize=auto;html=1;startArrow=block;startFill=1;exitX=1.071;exitY=0.618;exitDx=0;exitDy=0;exitPerimeter=0;" edge="1" parent="1" source="ACdFcl3Bcu2u3GEiezcl-14" target="ACdFcl3Bcu2u3GEiezcl-12">
          <mxGeometry relative="1" as="geometry" />
        </mxCell>
        <mxCell id="ACdFcl3Bcu2u3GEiezcl-3" value="Network" style="ellipse;shape=cloud;whiteSpace=wrap;html=1;" vertex="1" parent="1">
          <mxGeometry x="290" y="255" width="120" height="80" as="geometry" />
        </mxCell>
        <mxCell id="ACdFcl3Bcu2u3GEiezcl-4" value="Database&lt;br&gt;(SaaS/Paas)" style="shape=cylinder3;whiteSpace=wrap;html=1;boundedLbl=1;backgroundOutline=1;size=6.551724137931103;" vertex="1" parent="1">
          <mxGeometry x="550" y="232.75" width="80" height="50" as="geometry" />
        </mxCell>
        <mxCell id="ACdFcl3Bcu2u3GEiezcl-5" value="Serverless&lt;br&gt;Provider&lt;div&gt;(FaaS)&lt;/div&gt;" style="shape=cube;whiteSpace=wrap;html=1;boundedLbl=1;backgroundOutline=1;darkOpacity=0.05;darkOpacity2=0.1;size=10;" vertex="1" parent="1">
          <mxGeometry x="550" y="157.75" width="80" height="60" as="geometry" />
        </mxCell>
        <mxCell id="ACdFcl3Bcu2u3GEiezcl-12" value="Web Server&lt;br&gt;(PaaS)" style="shape=cube;whiteSpace=wrap;html=1;boundedLbl=1;backgroundOutline=1;darkOpacity=0.05;darkOpacity2=0.1;size=10;" vertex="1" parent="1">
          <mxGeometry x="550" y="297.75" width="80" height="60" as="geometry" />
        </mxCell>
        <mxCell id="ACdFcl3Bcu2u3GEiezcl-14" value="S&lt;div&gt;e&lt;/div&gt;&lt;div&gt;c&lt;/div&gt;&lt;div&gt;u&lt;/div&gt;&lt;div&gt;r&lt;/div&gt;&lt;div&gt;i&lt;/div&gt;&lt;div&gt;t&lt;/div&gt;&lt;div&gt;y&lt;/div&gt;" style="rounded=0;whiteSpace=wrap;html=1;fontStyle=1" vertex="1" parent="1">
          <mxGeometry x="470" y="160" width="30" height="270" as="geometry" />
        </mxCell>
        <mxCell id="ACdFcl3Bcu2u3GEiezcl-16" style="rounded=0;orthogonalLoop=1;jettySize=auto;html=1;startArrow=block;startFill=1;entryX=0.933;entryY=0.49;entryDx=0;entryDy=0;entryPerimeter=0;" edge="1" parent="1" source="ACdFcl3Bcu2u3GEiezcl-19" target="ACdFcl3Bcu2u3GEiezcl-3">
          <mxGeometry relative="1" as="geometry">
            <mxPoint x="340" y="160" as="sourcePoint" />
            <mxPoint x="440" y="260" as="targetPoint" />
          </mxGeometry>
        </mxCell>
        <mxCell id="ACdFcl3Bcu2u3GEiezcl-17" value="Security&lt;br&gt;(SaaS)" style="shape=cube;whiteSpace=wrap;html=1;boundedLbl=1;backgroundOutline=1;darkOpacity=0.05;darkOpacity2=0.1;size=10;" vertex="1" parent="1">
          <mxGeometry x="550" y="370" width="80" height="60" as="geometry" />
        </mxCell>
        <mxCell id="ACdFcl3Bcu2u3GEiezcl-18" style="rounded=0;orthogonalLoop=1;jettySize=auto;html=1;entryX=1;entryY=0.889;entryDx=0;entryDy=0;entryPerimeter=0;startArrow=block;startFill=1;" edge="1" parent="1" source="ACdFcl3Bcu2u3GEiezcl-17" target="ACdFcl3Bcu2u3GEiezcl-14">
          <mxGeometry relative="1" as="geometry" />
        </mxCell>
        <mxCell id="ACdFcl3Bcu2u3GEiezcl-19" value="A&lt;div&gt;P&lt;br&gt;I&lt;/div&gt;" style="rounded=0;whiteSpace=wrap;html=1;fontStyle=1" vertex="1" parent="1">
          <mxGeometry x="440" y="160" width="30" height="270" as="geometry" />
        </mxCell>
      </root>
    </mxGraphModel>
  </diagram>
</mxfile>
